# xmcd
#
# Track frame offsets: 
#        150
#        21152
#        35507
#        49405
#        71787
#        89527
#        105797
#        121542
#        141532
#        157200
#
# Disc length: 2321 seconds
#
# Revision: 4
# Processed by: cddbd v1.5.2PL0 Copyright (c) Steve Scherf et al.
# Submitted via: ExactAudioCopy v0.99pb5
#
DISCID=8a090f0a
DTITLE=James Blunt - All The Lost Souls
DYEAR=2007
DGENRE=Pop-Folk
TTITLE0=1973
TTITLE1=One Of The Brightest Stars
TTITLE2=I'll Take Everything
TTITLE3=Same Mistake
TTITLE4=Carry You Home
TTITLE5=Give Me Some Love
TTITLE6=I Really Want You
TTITLE7=Shine On
TTITLE8=Annie
TTITLE9=I Can't Hear The Music
EXTD=YEAR: 2007
EXTT0=
EXTT1=
EXTT2=
EXTT3=
EXTT4=
EXTT5=
EXTT6=
EXTT7=
EXTT8=
EXTT9=
PLAYORDER=
